<svg width="18" height="18" viewBox="0 0 18 18" fill="none" xmlns="http://www.w3.org/2000/svg">
<path d="M1.5885 8.16357H16.8273" stroke="#6D737A" stroke-width="1.08848" stroke-linecap="round" stroke-linejoin="round"/>
<path d="M15.7388 12.5176V14.1503C15.7388 14.2946 15.6814 14.4331 15.5794 14.5351C15.4773 14.6372 15.3389 14.6945 15.1945 14.6945H13.5618C13.4175 14.6945 13.279 14.6372 13.177 14.5351C13.0749 14.4331 13.0176 14.2946 13.0176 14.1503V12.5176" stroke="#6D737A" stroke-width="1.08848" stroke-linecap="round" stroke-linejoin="round"/>
<path d="M5.39815 12.5176V14.1503C5.39815 14.2946 5.34081 14.4331 5.23874 14.5351C5.13668 14.6372 4.99825 14.6945 4.85391 14.6945H3.22118C3.07684 14.6945 2.93841 14.6372 2.83635 14.5351C2.73428 14.4331 2.67694 14.2946 2.67694 14.1503V12.5176" stroke="#6D737A" stroke-width="1.08848" stroke-linecap="round" stroke-linejoin="round"/>
<path d="M4.85394 10.3406H5.94243" stroke="#6D737A" stroke-width="1.08848" stroke-linecap="round" stroke-linejoin="round"/>
<path d="M12.4733 10.3406H13.5618" stroke="#6D737A" stroke-width="1.08848" stroke-linecap="round" stroke-linejoin="round"/>
<path d="M15.7387 8.16367L13.7046 3.59205C13.6624 3.49533 13.593 3.41297 13.5048 3.355C13.4167 3.29702 13.3135 3.26593 13.208 3.2655H5.20766C5.10214 3.26593 4.99901 3.29702 4.91084 3.355C4.82267 3.41297 4.75325 3.49533 4.71104 3.59205L2.67694 8.16367V12.5176H15.7387V8.16367Z" stroke="#6D737A" stroke-width="1.08848" stroke-linecap="round" stroke-linejoin="round"/>
</svg>
