<svg width="78" height="79" viewBox="0 0 78 79" fill="none" xmlns="http://www.w3.org/2000/svg">
<path d="M68.8088 38.7447H68.787C68.4914 38.7447 68.2066 38.6322 67.9907 38.4327L55.7393 27.0737C55.264 26.6329 55.2368 25.891 55.6758 25.4176C56.1166 24.9423 56.8585 24.9151 57.3319 25.3541L69.4582 36.5951C69.7738 36.8056 69.9806 37.1647 69.9806 37.571C69.9806 38.2204 69.4564 38.7447 68.8088 38.7447ZM45.2564 16.9319C44.9716 16.9319 44.685 16.8285 44.4601 16.6199C40.9537 13.3711 38.4904 11.0855 38.4904 11.0855C38.1729 10.7917 38.0441 10.3472 38.153 9.92821C38.2618 9.50919 38.5938 9.18631 39.0146 9.08473L39.2341 9.03212C39.8581 8.88338 40.4857 9.26431 40.6435 9.88468C41.5614 10.7354 43.5404 12.5711 46.0546 14.9003C46.5298 15.3411 46.557 16.083 46.1181 16.5564C45.8859 16.8049 45.5721 16.9319 45.2564 16.9319Z" fill="#4A60A1"/>
<path d="M62.9298 69.9779C62.324 69.9779 61.8106 69.5117 61.7616 68.8986C61.7417 68.6447 61.8034 68.4034 61.9249 68.2021V37.5644C61.9249 36.9168 62.4491 36.3926 63.0967 36.3926C63.7443 36.3926 64.2685 36.9168 64.2685 37.5644V68.7934C64.2685 69.4047 63.7987 69.9126 63.1892 69.9616L63.0223 69.9743C62.9915 69.9761 62.9607 69.9779 62.9298 69.9779Z" fill="#4A60A1"/>
<path d="M57.6603 25.9184C57.0145 25.9184 56.4885 25.396 56.4885 24.7484L56.4667 14.4143C55.9715 14.2692 55.616 13.8084 55.625 13.2679C55.6377 12.6203 56.1765 12.0997 56.8186 12.1178L57.6585 12.1323C58.297 12.1432 58.8085 12.6638 58.8085 13.3023L58.8321 24.7429C58.8339 25.3905 58.3097 25.9166 57.6621 25.9184C57.6621 25.9184 57.6621 25.9184 57.6603 25.9184Z" fill="#4A60A1"/>
<path d="M56.1822 26.6739C56.1822 27.4596 56.8184 28.0957 57.604 28.0957C58.3892 28.0957 59.0277 27.4601 59.0277 26.6739V13.1581C59.0277 12.3725 58.3915 11.7363 57.6058 11.7363H49.0549C48.2692 11.7363 47.6331 12.3725 47.6331 13.1581V18.6998C47.6331 19.4854 48.2692 20.1216 49.0549 20.1216C49.8405 20.1216 50.4767 19.4854 50.4767 18.6998V14.58H56.1822V26.6739Z" fill="#1E2640" stroke="#1E2640" stroke-width="0.5"/>
<path d="M8.23186 36.5227L8.23163 36.5229C7.65336 37.0528 7.61084 37.9528 8.14183 38.5323C8.42157 38.8383 8.80692 38.9943 9.19141 38.9943C9.53441 38.9943 9.87806 38.871 10.1507 38.6225L10.151 38.6223L39.1059 12.156L67.6466 38.6156L67.6469 38.6159C68.2232 39.1482 69.1212 39.1154 69.656 38.5388L69.656 38.5388C70.1889 37.9641 70.1557 37.064 69.5792 36.5294L69.5792 36.5293L40.0792 9.18071C39.5373 8.6762 38.6985 8.67439 38.1529 9.17384L8.23186 36.5227Z" fill="#4A60A1" stroke="#4A60A1" stroke-width="0.5"/>
<path d="M14.8074 70.2247H63.1076L64.2776 68.8011H64.5276V68.8004V34.2453C64.5276 33.4596 63.8914 32.8234 63.1058 32.8234C62.3201 32.8234 61.6839 33.4596 61.6839 34.2453V67.3793H16.2292V33.1913C16.2292 32.4057 15.5931 31.7695 14.8074 31.7695C14.0218 31.7695 13.3856 32.4057 13.3856 33.1913V68.8029C13.3856 69.5885 14.0218 70.2247 14.8074 70.2247Z" fill="#4A60A1" stroke="#4A60A1" stroke-width="0.5"/>
<path d="M37.8755 52.3988C42.2226 52.3988 45.7466 48.8289 45.7466 44.4251C45.7466 40.0213 42.2226 36.4514 37.8755 36.4514C33.5284 36.4514 30.0044 40.0213 30.0044 44.4251C30.0044 48.8289 33.5284 52.3988 37.8755 52.3988Z" stroke="#1E2640" stroke-width="2" stroke-linecap="round" stroke-linejoin="round"/>
<path d="M43.4414 50.0633L47.9954 54.6767" stroke="#1E2640" stroke-width="2" stroke-linecap="round" stroke-linejoin="round"/>
</svg>
