<svg width="15" height="16" viewBox="0 0 15 16" fill="none" xmlns="http://www.w3.org/2000/svg">
<path d="M3.66021 10.0173C4.66213 10.0173 5.47434 9.2051 5.47434 8.20318C5.47434 7.20125 4.66213 6.38904 3.66021 6.38904C2.65829 6.38904 1.84607 7.20125 1.84607 8.20318C1.84607 9.2051 2.65829 10.0173 3.66021 10.0173Z" stroke="#4A60A1" stroke-width="0.936687" stroke-linecap="round" stroke-linejoin="round"/>
<path d="M10.0097 14.0991C11.0116 14.0991 11.8238 13.2869 11.8238 12.285C11.8238 11.283 11.0116 10.4708 10.0097 10.4708C9.00777 10.4708 8.19556 11.283 8.19556 12.285C8.19556 13.2869 9.00777 14.0991 10.0097 14.0991Z" stroke="#4A60A1" stroke-width="0.936687" stroke-linecap="round" stroke-linejoin="round"/>
<path d="M10.0097 5.93553C11.0116 5.93553 11.8238 5.12331 11.8238 4.12139C11.8238 3.11947 11.0116 2.30725 10.0097 2.30725C9.00777 2.30725 8.19556 3.11947 8.19556 4.12139C8.19556 5.12331 9.00777 5.93553 10.0097 5.93553Z" stroke="#4A60A1" stroke-width="0.936687" stroke-linecap="round" stroke-linejoin="round"/>
<path d="M8.48464 5.10217L5.18518 7.22245" stroke="#4A60A1" stroke-width="0.936687" stroke-linecap="round" stroke-linejoin="round"/>
<path d="M5.18518 9.18396L8.48464 11.3042" stroke="#4A60A1" stroke-width="0.936687" stroke-linecap="round" stroke-linejoin="round"/>
</svg>
