<svg width="18" height="18" viewBox="0 0 18 18" fill="none" xmlns="http://www.w3.org/2000/svg">
<path d="M5.16785 13.0618V14.6945" stroke="#6D737A" stroke-width="1.08848" stroke-linecap="round" stroke-linejoin="round"/>
<path d="M12.7872 13.0618V14.6945" stroke="#6D737A" stroke-width="1.08848" stroke-linecap="round" stroke-linejoin="round"/>
<path d="M4.07935 7.07517V3.53761C4.07935 3.17675 4.22269 2.83068 4.47786 2.57551C4.73302 2.32035 5.07909 2.177 5.43995 2.177C5.8008 2.177 6.14688 2.32035 6.40204 2.57551C6.6572 2.83068 6.80055 3.17675 6.80055 3.53761" stroke="#6D737A" stroke-width="1.08848" stroke-linecap="round" stroke-linejoin="round"/>
<path d="M13.8757 6.53088H9.52173V9.79633H13.8757V6.53088Z" stroke="#6D737A" stroke-width="1.08848" stroke-linecap="round" stroke-linejoin="round"/>
<path d="M13.8757 7.0752H16.0527C16.197 7.0752 16.3354 7.13253 16.4375 7.2346C16.5396 7.33667 16.5969 7.47509 16.5969 7.61944V9.7964C16.5969 10.6625 16.2529 11.493 15.6405 12.1054C15.0281 12.7178 14.1975 13.0618 13.3315 13.0618H4.6236C3.75755 13.0618 2.92697 12.7178 2.31458 12.1054C1.70219 11.493 1.35815 10.6625 1.35815 9.7964V7.61944C1.35815 7.47509 1.41549 7.33667 1.51756 7.2346C1.61962 7.13253 1.75805 7.0752 1.9024 7.0752H9.52177" stroke="#6D737A" stroke-width="1.08848" stroke-linecap="round" stroke-linejoin="round"/>
</svg>
