<svg width="15" height="16" viewBox="0 0 15 16" fill="none" xmlns="http://www.w3.org/2000/svg">
<path d="M7.31463 13.1921C7.31463 13.1921 1.64545 10.0174 1.64545 6.16233C1.64545 5.48083 1.88156 4.82038 2.31363 4.29335C2.74569 3.76632 3.34701 3.40526 4.01528 3.27161C4.68354 3.13795 5.37747 3.23996 5.979 3.56028C6.58054 3.88059 7.05251 4.39942 7.31463 5.0285V5.0285C7.57674 4.39942 8.04872 3.88059 8.65025 3.56028C9.25178 3.23996 9.94571 3.13795 10.614 3.27161C11.2822 3.40526 11.8836 3.76632 12.3156 4.29335C12.7477 4.82038 12.9838 5.48083 12.9838 6.16233C12.9838 10.0174 7.31463 13.1921 7.31463 13.1921Z" stroke="#4A60A1" stroke-width="0.936687" stroke-linecap="round" stroke-linejoin="round"/>
</svg>
